<?xml version="1.0" encoding="iso-8859-1"?>
<!-- Generator: Adobe Illustrator 19.0.0, SVG Export Plug-In . SVG Version: 6.00 Build 0)  -->
<svg version="1.1" id="Capa_1" xmlns="http://www.w3.org/2000/svg" xmlns:xlink="http://www.w3.org/1999/xlink" x="0px" y="0px"
	 viewBox="0 0 480 480" style="enable-background:new 0 0 480 480;" xml:space="preserve">
<g>
	<g>
		<path d="M472,32h-40V8c0-4.418-3.582-8-8-8h-32c-4.418,0-8,3.582-8,8v24H96V8c0-4.418-3.582-8-8-8H56c-4.418,0-8,3.582-8,8v24H8
			c-4.418,0-8,3.582-8,8v432c0,4.418,3.582,8,8,8h464c4.418,0,8-3.582,8-8V40C480,35.582,476.418,32,472,32z M400,16h16v48h-16V16z
			 M64,16h16v48H64V16z M464,464H16V144h448V464z M464,128H16V48h32v24c0,4.418,3.582,8,8,8h32c4.418,0,8-3.582,8-8V48h288v24
			c0,4.418,3.582,8,8,8h32c4.418,0,8-3.582,8-8V48h32V128z"/>
	</g>
</g>
<g>
	<g>
		<path d="M192,184h-16c-4.418,0-8,3.582-8,8s3.582,8,8,8h16c4.418,0,8-3.582,8-8S196.418,184,192,184z"/>
	</g>
</g>
<g>
	<g>
		<path d="M248,184h-16c-4.418,0-8,3.582-8,8s3.582,8,8,8h16c4.418,0,8-3.582,8-8S252.418,184,248,184z"/>
	</g>
</g>
<g>
	<g>
		<path d="M304,184h-16c-4.418,0-8,3.582-8,8s3.582,8,8,8h16c4.418,0,8-3.582,8-8S308.418,184,304,184z"/>
	</g>
</g>
<g>
	<g>
		<path d="M360,184h-16c-4.418,0-8,3.582-8,8s3.582,8,8,8h16c4.418,0,8-3.582,8-8S364.418,184,360,184z"/>
	</g>
</g>
<g>
	<g>
		<path d="M416,184h-16c-4.418,0-8,3.582-8,8s3.582,8,8,8h16c4.418,0,8-3.582,8-8S420.418,184,416,184z"/>
	</g>
</g>
<g>
	<g>
		<path d="M192,240h-16c-4.418,0-8,3.582-8,8s3.582,8,8,8h16c4.418,0,8-3.582,8-8S196.418,240,192,240z"/>
	</g>
</g>
<g>
	<g>
		<path d="M248,240h-16c-4.418,0-8,3.582-8,8s3.582,8,8,8h16c4.418,0,8-3.582,8-8S252.418,240,248,240z"/>
	</g>
</g>
<g>
	<g>
		<path d="M304,240h-16c-4.418,0-8,3.582-8,8s3.582,8,8,8h16c4.418,0,8-3.582,8-8S308.418,240,304,240z"/>
	</g>
</g>
<g>
	<g>
		<path d="M360,240h-16c-4.418,0-8,3.582-8,8s3.582,8,8,8h16c4.418,0,8-3.582,8-8S364.418,240,360,240z"/>
	</g>
</g>
<g>
	<g>
		<path d="M136,240h-16c-4.418,0-8,3.582-8,8s3.582,8,8,8h16c4.418,0,8-3.582,8-8S140.418,240,136,240z"/>
	</g>
</g>
<g>
	<g>
		<path d="M80,240H64c-4.418,0-8,3.582-8,8s3.582,8,8,8h16c4.418,0,8-3.582,8-8S84.418,240,80,240z"/>
	</g>
</g>
<g>
	<g>
		<path d="M416,240h-16c-4.418,0-8,3.582-8,8s3.582,8,8,8h16c4.418,0,8-3.582,8-8S420.418,240,416,240z"/>
	</g>
</g>
<g>
	<g>
		<path d="M192,296h-16c-4.418,0-8,3.582-8,8s3.582,8,8,8h16c4.418,0,8-3.582,8-8S196.418,296,192,296z"/>
	</g>
</g>
<g>
	<g>
		<path d="M248,296h-16c-4.418,0-8,3.582-8,8s3.582,8,8,8h16c4.418,0,8-3.582,8-8S252.418,296,248,296z"/>
	</g>
</g>
<g>
	<g>
		<path d="M304,296h-16c-4.418,0-8,3.582-8,8s3.582,8,8,8h16c4.418,0,8-3.582,8-8S308.418,296,304,296z"/>
	</g>
</g>
<g>
	<g>
		<path d="M360,296h-16c-4.418,0-8,3.582-8,8s3.582,8,8,8h16c4.418,0,8-3.582,8-8S364.418,296,360,296z"/>
	</g>
</g>
<g>
	<g>
		<path d="M136,296h-16c-4.418,0-8,3.582-8,8s3.582,8,8,8h16c4.418,0,8-3.582,8-8S140.418,296,136,296z"/>
	</g>
</g>
<g>
	<g>
		<path d="M80,296H64c-4.418,0-8,3.582-8,8s3.582,8,8,8h16c4.418,0,8-3.582,8-8S84.418,296,80,296z"/>
	</g>
</g>
<g>
	<g>
		<path d="M416,296h-16c-4.418,0-8,3.582-8,8s3.582,8,8,8h16c4.418,0,8-3.582,8-8S420.418,296,416,296z"/>
	</g>
</g>
<g>
	<g>
		<path d="M192,352h-16c-4.418,0-8,3.582-8,8s3.582,8,8,8h16c4.418,0,8-3.582,8-8S196.418,352,192,352z"/>
	</g>
</g>
<g>
	<g>
		<path d="M248,352h-16c-4.418,0-8,3.582-8,8s3.582,8,8,8h16c4.418,0,8-3.582,8-8S252.418,352,248,352z"/>
	</g>
</g>
<g>
	<g>
		<path d="M304,352h-16c-4.418,0-8,3.582-8,8s3.582,8,8,8h16c4.418,0,8-3.582,8-8S308.418,352,304,352z"/>
	</g>
</g>
<g>
	<g>
		<path d="M360,352h-16c-4.418,0-8,3.582-8,8s3.582,8,8,8h16c4.418,0,8-3.582,8-8S364.418,352,360,352z"/>
	</g>
</g>
<g>
	<g>
		<path d="M136,352h-16c-4.418,0-8,3.582-8,8s3.582,8,8,8h16c4.418,0,8-3.582,8-8S140.418,352,136,352z"/>
	</g>
</g>
<g>
	<g>
		<path d="M80,352H64c-4.418,0-8,3.582-8,8s3.582,8,8,8h16c4.418,0,8-3.582,8-8S84.418,352,80,352z"/>
	</g>
</g>
<g>
	<g>
		<path d="M416,352h-16c-4.418,0-8,3.582-8,8s3.582,8,8,8h16c4.418,0,8-3.582,8-8S420.418,352,416,352z"/>
	</g>
</g>
<g>
	<g>
		<path d="M192,408h-16c-4.418,0-8,3.582-8,8s3.582,8,8,8h16c4.418,0,8-3.582,8-8S196.418,408,192,408z"/>
	</g>
</g>
<g>
	<g>
		<path d="M248,408h-16c-4.418,0-8,3.582-8,8s3.582,8,8,8h16c4.418,0,8-3.582,8-8S252.418,408,248,408z"/>
	</g>
</g>
<g>
	<g>
		<path d="M136,408h-16c-4.418,0-8,3.582-8,8s3.582,8,8,8h16c4.418,0,8-3.582,8-8S140.418,408,136,408z"/>
	</g>
</g>
<g>
	<g>
		<path d="M80,408H64c-4.418,0-8,3.582-8,8s3.582,8,8,8h16c4.418,0,8-3.582,8-8S84.418,408,80,408z"/>
	</g>
</g>
<g>
</g>
<g>
</g>
<g>
</g>
<g>
</g>
<g>
</g>
<g>
</g>
<g>
</g>
<g>
</g>
<g>
</g>
<g>
</g>
<g>
</g>
<g>
</g>
<g>
</g>
<g>
</g>
<g>
</g>
</svg>
