<?xml version="1.0" encoding="iso-8859-1"?>
<!-- Generator: Adobe Illustrator 19.0.0, SVG Export Plug-In . SVG Version: 6.00 Build 0)  -->
<svg xmlns="http://www.w3.org/2000/svg" xmlns:xlink="http://www.w3.org/1999/xlink" version="1.1" id="Capa_1" x="0px" y="0px" viewBox="0 0 512 512" style="enable-background:new 0 0 512 512;" xml:space="preserve" width="512" height="512">
<g>
	<path d="M52.169,296.865c4.9,17.174,17.319,31.701,33.879,39.046c0.968,0.43,2.004,0.645,3.041,0.645   c1.036,0,2.073-0.215,3.041-0.645c16.565-7.347,28.987-21.879,33.884-39.059c4.876,1.957,9.402,4.791,13.347,8.427   c3.046,2.807,7.791,2.611,10.598-0.433c2.807-3.047,2.613-7.791-0.433-10.599c-7.775-7.165-17.222-12.014-27.382-14.206   c-0.078-0.019-0.152-0.044-0.231-0.061c-0.135-0.028-0.271-0.047-0.406-0.075c-0.698-0.143-1.4-0.271-2.104-0.388   c-0.273-0.046-0.546-0.093-0.82-0.135c-0.719-0.109-1.442-0.201-2.166-0.284c-0.263-0.03-0.526-0.065-0.789-0.092   c-0.747-0.075-1.498-0.13-2.25-0.177c-0.241-0.015-0.481-0.039-0.722-0.051c-0.979-0.048-1.962-0.077-2.948-0.077   c-0.001,0-0.003,0-0.004,0h0H68.476c-3.113,0-6.169,0.248-9.153,0.717c-0.111,0.017-0.22,0.041-0.331,0.059   c-0.876,0.143-1.747,0.3-2.609,0.481c-0.039,0.008-0.078,0.013-0.116,0.021c-0.06,0.013-0.117,0.032-0.177,0.046   c-26.481,5.704-46.393,29.293-46.393,57.455v49.583c0,6.341,5.159,11.5,11.5,11.5h100.275c4.142,0,7.5-3.357,7.5-7.5   s-3.358-7.5-7.5-7.5H24.696v-46.083C24.696,319.105,36.084,303.347,52.169,296.865z M109.702,293.703   c0.535,0,1.068,0.018,1.6,0.037c-3.542,11.453-11.552,21.252-22.213,26.972c-10.66-5.719-18.669-15.517-22.212-26.968   c0.531-0.019,1.062-0.041,1.598-0.041H109.702z"/>
	<path d="M50.102,130c11.17-8.93,24.652-13.649,38.988-13.649c15.412,0,30.216,5.658,41.684,15.932   c1.432,1.283,3.22,1.914,5.002,1.914c2.058,0,4.107-0.842,5.589-2.495c2.764-3.086,2.503-7.827-0.582-10.591   c-14.224-12.742-32.582-19.76-51.693-19.76c-17.521,0-34.693,6.014-48.354,16.933c-3.235,2.586-3.762,7.306-1.175,10.541   C42.147,132.06,46.866,132.585,50.102,130z"/>
	<path d="M89.089,268.297c10.146,0,19.704-2.562,28.068-7.064H142c4.142,0,7.5-3.357,7.5-7.5c0-4.143-3.358-7.5-7.5-7.5h-6.753   c8.274-10.208,13.245-23.198,13.245-37.331v-10.903c0-4.143-3.358-7.5-7.5-7.5H84.728c-3.888,0-7.634-1.176-10.821-3.391   c-3.196-2.232-5.598-5.34-6.947-8.988c-3.522-9.512-12.699-15.903-22.836-15.903h-6.632c-3.814,0-7.021,2.863-7.452,6.653   c-0.235,2.068-0.354,4.169-0.354,6.246v33.786c0,14.133,4.971,27.123,13.245,37.331H20.618c3.741-9.162,5.972-20.45,5.972-29.171   v-38.22c0-9.847,2.224-19.265,6.611-27.991c1.86-3.7,0.368-8.209-3.333-10.069c-3.703-1.858-8.209-0.368-10.07,3.333   c-5.447,10.836-8.209,22.52-8.209,34.728v38.22c0,12.665-5.659,27.722-9.329,31.304c-2.182,2.131-2.857,5.371-1.707,8.195   c1.15,2.825,3.896,4.672,6.946,4.672h53.521C69.385,265.735,78.943,268.297,89.089,268.297z M44.686,177.233   c3.666,0.223,6.919,2.615,8.206,6.091c2.413,6.527,6.71,12.088,12.439,16.09c5.725,3.98,12.432,6.084,19.396,6.084h48.765v3.403   c0,24.479-19.919,44.396-44.403,44.396s-44.403-19.916-44.403-44.396V177.233z"/>
	<path d="M459.773,280.029c-0.061-0.015-0.119-0.034-0.18-0.047c-0.039-0.008-0.079-0.014-0.119-0.022   c-0.854-0.179-1.716-0.334-2.582-0.476c-0.12-0.02-0.238-0.045-0.358-0.064c-2.983-0.468-6.038-0.716-9.151-0.716h-41.227   c-1.021,0-2.038,0.028-3.05,0.08c-0.067,0.003-0.134,0.011-0.202,0.015c-14.478,0.784-27.98,6.79-38.313,17.121   c-2.929,2.93-2.929,7.678,0,10.607c2.93,2.928,7.678,2.928,10.607,0c4.251-4.251,9.226-7.513,14.643-9.686   c4.894,17.184,17.318,31.722,33.886,39.07c0.969,0.43,2.005,0.645,3.041,0.645s2.072-0.215,3.041-0.645   c16.561-7.345,28.98-21.872,33.879-39.045c16.085,6.481,27.472,22.24,27.472,40.617v46.083h-100.3c-4.143,0-7.5,3.357-7.5,7.5   s3.357,7.5,7.5,7.5h103.8c6.341,0,11.5-5.159,11.5-11.5v-49.583C506.162,309.322,486.253,285.734,459.773,280.029z M426.77,320.712   c-10.661-5.719-18.671-15.518-22.213-26.97c0.532-0.019,1.064-0.039,1.599-0.039h41.227c0.536,0,1.067,0.021,1.599,0.041   C445.44,305.195,437.43,314.993,426.77,320.712z"/>
	<path d="M426.77,268.301c15.263,0,29.196-5.79,39.729-15.284c3.855,1.513,7.975,2.315,12.172,2.315   c18.378,0,33.33-14.952,33.33-33.33c0-15.798-11.052-29.054-25.827-32.468v-14.415c0-8.626-1.974-16.799-5.494-24.092   c-8.994-18.637-28.083-31.527-50.125-31.527h-7.57c-30.668,0-55.618,24.95-55.618,55.617v0.002v12.955v20.823   C367.366,241.652,394.015,268.301,426.77,268.301z M497,222.002c0,10.107-8.223,18.33-18.33,18.33   c-0.499,0-0.995-0.026-1.488-0.066c5.633-9.02,8.917-19.648,8.982-31.029c0.001-0.061,0.01-0.122,0.01-0.183v-3.758   C492.546,208.169,497,214.569,497,222.002z M422.985,134.502h7.57c16.797,0,31.246,10.249,37.421,24.822   c2.058,4.857,3.196,10.195,3.196,15.793v21.016c0,0.013-0.002,0.025-0.002,0.039s0.002,0.026,0.002,0.039v4.482   c-59.079-7.737-65.368-38.136-65.601-39.39c-0.487-3.754-3.67-6.438-7.402-6.438c-0.167,0-0.336,0.005-0.505,0.016   c-3.946,0.255-7.003,3.628-7.003,7.583v18.111h-8.295v-5.455C382.366,152.723,400.588,134.502,422.985,134.502z M382.366,195.574   h15.795c3.841,0,7.007-2.887,7.447-6.609c11.263,11.097,30.913,22.541,65.035,26.777c-3.301,21.246-21.717,37.559-43.873,37.559   c-24.484,0-44.403-19.919-44.403-44.403V195.574z"/>
	<path d="M356.963,179.805c1.65-7.42,2.487-15.021,2.487-22.593c0-15-3.143-29.468-9.341-43.003   c-1.726-3.765-6.176-5.422-9.942-3.696c-3.766,1.726-5.421,6.176-3.696,9.942c5.295,11.561,7.979,23.928,7.979,36.757   c0,6.495-0.72,13.019-2.141,19.388c-0.009,0.04-0.018,0.079-0.025,0.119c-13.601,65.988-16.609,84.527-5.778,131.525   c-4.84-3.795-10.108-7.063-15.729-9.708c-0.116-0.062-0.229-0.129-0.349-0.185c-0.809-0.375-1.624-0.732-2.441-1.079   c-0.097-0.042-0.195-0.081-0.292-0.122c-4.935-2.076-10.013-3.649-15.203-4.714c-0.001,0-0.002,0-0.003,0   c-1.333-0.273-2.672-0.514-4.019-0.72c-0.013-0.002-0.026-0.004-0.038-0.006c-1.343-0.205-2.693-0.378-4.049-0.516   c-0.029-0.003-0.058-0.005-0.088-0.008c-1.354-0.136-2.713-0.242-4.079-0.311c-0.03-0.001-0.06-0.002-0.09-0.003   c-1.379-0.068-2.763-0.106-4.153-0.106h-0.442H226.47h-0.442c-1.39,0-2.774,0.038-4.152,0.106c-0.03,0.001-0.06,0.002-0.09,0.003   c-1.367,0.069-2.728,0.175-4.083,0.312c-0.027,0.003-0.054,0.005-0.08,0.008c-1.36,0.138-2.713,0.312-4.06,0.517   c-0.008,0.001-0.017,0.002-0.025,0.004c-6.594,1.009-13.022,2.823-19.225,5.433c-0.101,0.042-0.202,0.083-0.303,0.125   c-0.816,0.347-1.629,0.703-2.437,1.078c-0.119,0.055-0.23,0.122-0.346,0.183c-5.624,2.645-10.893,5.914-15.734,9.711   c10.83-46.996,7.824-65.539-5.777-131.526c-0.008-0.04-0.017-0.08-0.025-0.119c-1.42-6.367-2.141-12.89-2.141-19.388   c0-48.771,39.679-88.45,88.45-88.45c24.443,0,48.031,10.262,64.715,28.155c2.825,3.028,7.57,3.195,10.601,0.37   c3.029-2.825,3.195-7.57,0.37-10.601C312.175,65.763,284.589,53.762,256,53.762c-57.042,0-103.45,46.407-103.45,103.45   c0,7.574,0.837,15.175,2.487,22.594c15.29,74.185,17.287,83.932-1.79,155.186c-5.915,11.331-9.28,24.194-9.28,37.836v67.911   c0,9.649,7.851,17.5,17.5,17.5h189.066c9.649,0,17.5-7.851,17.5-17.5v-67.91c0-13.643-3.365-26.507-9.28-37.838   C339.676,263.737,341.673,253.989,356.963,179.805z M205.399,309.027c0.178-0.058,0.352-0.124,0.531-0.18   c0.174-0.055,0.348-0.105,0.522-0.158c0.844-0.258,1.695-0.501,2.553-0.727c0.173-0.045,0.345-0.091,0.518-0.135   c0.978-0.249,1.963-0.479,2.958-0.684c0.022-0.004,0.043-0.01,0.065-0.014c2.085-0.428,4.207-0.752,6.358-0.98   c0.224-0.024,0.449-0.044,0.674-0.066c0.074-0.007,0.149-0.01,0.224-0.017c2.112,9.932,8.193,18.536,16.924,23.827l-4.961,27.259   L205.399,309.027z M243.209,378.042l9.28-50.986c0.64-3.516-1.29-6.994-4.611-8.313c-6.015-2.389-10.515-7.152-12.608-12.976h41.46   c-2.093,5.825-6.592,10.587-12.607,12.976c-3.321,1.319-5.251,4.798-4.611,8.313l9.28,50.986L256,401.392L243.209,378.042z    M280.236,357.153l-4.962-27.259c8.732-5.29,14.812-13.895,16.924-23.827c0.075,0.007,0.151,0.01,0.225,0.017   c0.224,0.021,0.447,0.042,0.67,0.065c2.152,0.229,4.276,0.553,6.363,0.981c0.017,0.003,0.034,0.007,0.051,0.011   c1.001,0.206,1.992,0.438,2.976,0.688c0.167,0.042,0.334,0.087,0.501,0.13c0.866,0.228,1.725,0.473,2.577,0.734   c0.166,0.051,0.333,0.099,0.499,0.151c0.181,0.057,0.358,0.124,0.539,0.183L280.236,357.153z M353.033,440.738   c0,1.379-1.121,2.5-2.5,2.5H161.467c-1.378,0-2.5-1.121-2.5-2.5v-67.911c0-24.44,13.147-45.86,32.735-57.581l57.72,105.359   c1.316,2.402,3.838,3.896,6.578,3.896c2.739,0,5.262-1.494,6.577-3.896l57.72-105.359c19.589,11.722,32.736,33.142,32.736,57.582   V440.738z"/>
	<path d="M327.697,199.494c-28.715-7.445-55.3-21.185-76.883-39.732c-18.263-15.694-32.829-34.748-41.016-53.653   c-1.009-2.33-3.128-3.991-5.632-4.415c-2.507-0.423-5.052,0.449-6.771,2.318c-12.353,13.431-19.155,30.883-19.155,49.144v45.724   c0,42.876,34.882,77.759,77.759,77.759c39.672,0,72.891-29.687,77.269-69.055C333.681,203.876,331.307,200.43,327.697,199.494z    M256,261.638c-34.605,0-62.759-28.153-62.759-62.759v-45.724c0-10.626,2.903-20.907,8.316-29.837   c18.544,33.805,56.801,71.642,115.785,88.879C311.214,240.789,285.875,261.638,256,261.638z"/>
</g>















</svg>
